<svg width="20" height="24" viewBox="0 0 20 24" fill="none" xmlns="http://www.w3.org/2000/svg">
<path d="M19.114 18.424C18.7661 19.2275 18.3544 19.9672 17.8774 20.6472C17.2272 21.5743 16.6948 22.216 16.2845 22.5724C15.6484 23.1573 14.967 23.4568 14.2373 23.4739C13.7134 23.4739 13.0816 23.3248 12.3462 23.0224C11.6084 22.7214 10.9303 22.5724 10.3103 22.5724C9.66011 22.5724 8.96275 22.7214 8.21684 23.0224C7.46978 23.3248 6.86797 23.4824 6.40784 23.498C5.70807 23.5278 5.01056 23.2197 4.31434 22.5724C3.86997 22.1848 3.31415 21.5204 2.64831 20.5791C1.93391 19.5739 1.34658 18.4084 0.886448 17.0795C0.393666 15.6442 0.146637 14.2543 0.146637 12.9087C0.146637 11.3673 0.479701 10.0379 1.14682 8.92385C1.67112 8.029 2.36862 7.32312 3.2416 6.80493C4.11458 6.28674 5.05784 6.02267 6.07364 6.00578C6.62946 6.00578 7.35834 6.1777 8.26411 6.51559C9.16733 6.85462 9.74728 7.02655 10.0016 7.02655C10.1917 7.02655 10.8359 6.82552 11.9281 6.42473C12.9609 6.05305 13.8326 5.89916 14.5468 5.95978C16.4818 6.11595 17.9356 6.87876 18.9024 8.25303C17.1718 9.30163 16.3157 10.7703 16.3327 12.6544C16.3484 14.122 16.8808 15.3432 17.9271 16.3129C18.4013 16.7629 18.9308 17.1107 19.52 17.3578C19.3922 17.7283 19.2574 18.0832 19.114 18.424ZM14.6759 0.960131C14.6759 2.11039 14.2557 3.18439 13.4181 4.17847C12.4073 5.36023 11.1846 6.04311 9.85873 5.93536C9.84184 5.79736 9.83204 5.65213 9.83204 5.49951C9.83204 4.39526 10.3128 3.21349 11.1664 2.24724C11.5926 1.75801 12.1347 1.35122 12.792 1.02671C13.4479 0.707053 14.0683 0.530273 14.6518 0.5C14.6688 0.653772 14.6759 0.807554 14.6759 0.960116V0.960131Z" fill="white"/>
</svg>
