<svg width="57" height="57" viewBox="0 0 57 57" fill="none" xmlns="http://www.w3.org/2000/svg">
<path d="M1.45898 19.4371C1.45898 16.0685 1.45937 13.5721 1.62081 11.5962C1.78178 9.6261 2.10035 8.21741 2.71241 7.01617C3.81495 4.85231 5.57423 3.09303 7.73809 1.99049C8.93933 1.37843 10.348 1.05985 12.3181 0.89889C14.2941 0.737449 16.7904 0.737061 20.159 0.737061H37.759C41.1275 0.737061 43.6239 0.737449 45.5998 0.89889C47.57 1.05985 48.9786 1.37843 50.1799 1.99049C52.3437 3.09303 54.103 4.85231 55.2056 7.01617C55.8176 8.21741 56.1362 9.6261 56.2972 11.5962C56.4586 13.5721 56.459 16.0685 56.459 19.4371V37.0371C56.459 40.4056 56.4586 42.902 56.2972 44.8779C56.1362 46.848 55.8176 48.2567 55.2056 49.458C54.103 51.6218 52.3437 53.3811 50.1799 54.4836C48.9786 55.0957 47.57 55.4143 45.5998 55.5752C43.6239 55.7367 41.1275 55.7371 37.759 55.7371H20.159C16.7904 55.7371 14.2941 55.7367 12.3181 55.5752C10.348 55.4143 8.93933 55.0957 7.73809 54.4836C5.57423 53.3811 3.81495 51.6218 2.71241 49.458C2.10035 48.2567 1.78178 46.848 1.62081 44.8779C1.45937 42.902 1.45898 40.4056 1.45898 37.0371V19.4371Z" fill="#18171A" stroke="#2E2C31"/>
<path d="M28.9538 9.23706C28.8835 9.23706 28.8131 9.23706 28.7427 9.23706C23.5073 9.23706 20.6932 12.2552 17.7138 15.447C16.9836 16.2298 16.2289 17.0388 15.4186 17.8282C14.9668 18.2687 14.4576 18.6552 13.9207 19.0646C13.0236 19.7459 12.097 20.4517 11.4585 21.4244C10.2176 23.3192 9.95898 26.1785 9.95898 28.2436C9.96226 33.1566 11.984 37.8746 15.6527 41.5299C15.7755 41.651 15.8983 41.7706 16.0227 41.8885C16.0259 41.8918 16.0309 41.8967 16.0341 41.9C18.3113 44.155 21.0337 45.7157 23.9575 46.4821C25.5848 46.9636 27.2644 47.224 28.9457 47.2371C29.0242 47.2371 29.1012 47.2371 29.1781 47.2371C32.2902 47.2371 34.4167 46.7097 35.4988 45.6682C36.1324 45.059 36.4647 44.2827 36.7856 43.5311C37.0786 42.8449 37.3553 42.198 37.8464 41.6592C39.0889 40.2918 40.4952 39.2011 41.8556 38.1465C45.0167 35.6949 48.0011 33.3793 47.9585 28.242C47.8849 19.3233 37.9381 9.37626 28.9538 9.23706ZM34.3136 43.2248C34.3349 43.9094 34.3529 44.4514 33.8683 45.0459C33.8028 45.1261 33.7308 45.1998 33.6506 45.2686C34.3611 44.2189 33.9665 43.5065 33.6129 42.876C33.4198 42.5305 33.22 42.1735 33.148 41.7165C32.8108 39.5843 34.4806 38.3414 36.5318 37.0509C37.3143 36.5596 38.1132 36.0912 38.8859 35.6392C41.1762 34.298 43.3404 33.0321 45.1853 31.1291C45.516 30.7869 45.778 30.4364 45.9695 30.0794C45.5029 32.8847 42.9753 34.3848 40.3102 35.9668C37.8857 37.4063 35.3793 38.8949 34.5019 41.4709C34.2809 42.1194 34.2989 42.7057 34.3152 43.2215L34.3136 43.2248ZM32.413 41.8361C32.4604 42.1341 32.5456 42.3913 32.6471 42.6238C32.5521 42.4993 32.4523 42.3782 32.3557 42.2602C32.2149 42.0899 32.0692 41.9131 31.9366 41.7297C31.2261 40.7503 30.9985 39.8644 31.2425 39.021C31.9022 36.7315 35.859 35.1479 39.0365 33.8755C40.3265 33.3596 41.4414 32.9125 42.219 32.4704C42.7036 32.1953 43.193 31.8956 43.64 31.568C42.0929 32.9044 40.3429 33.9279 38.511 35.0006C37.7334 35.4558 36.928 35.9258 36.1373 36.4253C34.3807 37.5307 31.9742 39.0455 32.4162 41.8361H32.413ZM13.9371 26.3538C14.3512 25.9886 14.6197 25.8707 14.9029 25.8707C15.0895 25.8707 15.2844 25.9214 15.5316 25.9869C15.6642 26.0213 15.8115 26.0606 15.9768 26.0967C15.3105 26.2178 14.7409 26.5012 14.2825 26.9564C13.2266 28.0062 12.9221 29.801 12.8582 31.419C12.8402 28.7071 13.202 27.0006 13.9354 26.3538H13.9371ZM44.6533 29.0592C44.5944 29.5488 44.2948 30.0319 43.7218 30.5461C43.8282 30.3873 43.9166 30.2219 43.9805 30.0483C44.2195 29.4063 44.1343 28.7234 43.7251 28.0176C42.9115 26.6109 41.0829 25.4285 39.4704 24.3853C39.3623 24.3165 39.2575 24.2477 39.1528 24.179C39.3541 24.2789 39.5538 24.3771 39.7536 24.4754C41.055 25.1124 42.3991 25.7724 43.4337 26.7534C44.339 27.6115 44.7384 28.3664 44.6533 29.0608V29.0592ZM43.2847 29.7879C42.7887 31.121 40.2561 31.9955 38.5798 32.5752C38.2082 32.7046 37.8562 32.8258 37.5714 32.9355C37.4011 33.0026 37.1834 33.0763 36.9345 33.1582C39.1462 32.2051 41.3039 30.8639 41.3693 28.8037C41.4054 27.7114 40.8209 26.6322 40.0302 25.6398C41.2826 26.4766 42.5055 27.3937 43.0817 28.3894C43.378 28.9003 43.4435 29.3589 43.2847 29.7879ZM37.1719 23.7548C38.6551 25.1386 40.6867 27.035 40.6294 28.7775C40.5541 31.1226 36.5989 32.549 34.2367 33.4006C33.7095 33.5905 33.2544 33.7543 32.8926 33.9066C32.6176 34.0229 32.2738 34.1457 31.9104 34.2783C31.6599 34.3684 31.3947 34.465 31.1213 34.5682C33.1529 32.9388 35.1747 31.2438 36.2339 29.2868C37.4207 27.094 37.2521 24.8373 35.7149 22.4136C36.1029 22.7788 36.4549 23.1063 36.7708 23.3798C36.8985 23.501 37.0328 23.6254 37.1719 23.7565V23.7548ZM19.2051 27.2643C19.2411 27.2512 19.2788 27.2365 19.3148 27.2217C19.6651 27.1824 20.0777 27.0465 20.6179 26.7435C21.0075 26.5257 21.3791 26.244 21.7377 25.9214C23.0211 24.8701 24.0803 23.2848 25.0364 21.8535C25.4145 21.2885 25.7698 20.7546 26.1152 20.2912C26.9746 19.1366 27.9159 18.534 28.9931 18.4488C29.0815 18.4423 29.1683 18.439 29.2567 18.439C30.2046 18.439 31.1852 18.832 32.1461 19.4232C32.9155 20.0488 33.7177 20.9217 34.5592 22.0467C38.6895 27.5705 34.5559 30.872 30.1784 34.3684L29.8035 34.6681C28.962 35.3412 28.3056 35.8963 27.9127 36.4777C27.4232 37.046 27.1433 37.7387 27.2431 38.5985C27.3675 39.6695 28.3105 40.3491 29.2223 41.0074C29.535 41.2334 29.8395 41.4545 30.0982 41.6805C30.3519 41.9884 30.5467 42.2946 30.5745 42.5518C30.6302 43.0447 30.5025 43.4574 30.1866 43.816C29.296 44.8232 27.0663 45.2015 25.277 45.2178C25.2475 45.2178 25.2181 45.2178 25.187 45.2178C19.8796 45.2178 15.268 40.5882 15.0945 35.0628C15.0208 32.6915 15.7869 29.4833 17.645 28.0389C18.1067 27.6803 18.6387 27.4772 19.2002 27.261L19.2051 27.2643ZM17.2767 27.1824C17.4649 27.1136 17.6499 27.0711 17.8365 27.0449C17.6172 27.1611 17.4011 27.2938 17.1948 27.4543C15.3253 28.9069 14.4544 31.7989 14.3611 34.2882C14.3545 34.1686 14.3447 34.0474 14.3414 33.9279C14.2923 32.2428 14.4773 28.2109 17.2783 27.1841L17.2767 27.1824ZM28.2532 37.5848C28.2761 37.367 28.3612 37.1557 28.4987 36.9428C28.8998 36.4793 29.4924 36.1043 30.1424 35.7883C29.1978 36.3762 28.4906 37.0574 28.2548 37.8582C28.245 37.7633 28.2434 37.6732 28.2532 37.5848ZM13.6015 32.9617C13.5998 32.9044 13.5949 32.847 13.5933 32.7897C13.554 31.0686 13.6358 28.6465 14.808 27.4837C15.2172 27.076 15.7345 26.8483 16.3746 26.7894C14.1662 28.0536 13.6735 31.0243 13.6031 32.9617H13.6015ZM32.2247 44.7265C32.0774 44.9493 31.8285 45.1278 31.5175 45.2719C31.8056 45.0541 32.0184 44.8068 32.1494 44.53C32.3229 44.1665 32.354 43.7685 32.2476 43.3395C32.5439 43.798 32.5914 44.1714 32.2247 44.7249V44.7265ZM30.7415 41.1499C30.6253 41.0418 30.5091 40.9354 30.3945 40.8306C29.5514 40.0674 28.8229 39.4091 28.9162 38.3266C29.0848 36.3795 33.7161 34.94 36.2028 34.167C36.4352 34.0949 36.6546 34.0261 36.8609 33.9606C34.0173 35.1627 31.1475 36.6628 30.5271 38.8146C30.311 39.5647 30.383 40.3475 30.7399 41.1499H30.7415ZM33.8307 19.6984C32.133 18.2736 30.2422 17.0437 28.5299 17.1747C27.6115 17.2452 26.8175 17.7004 26.1741 18.5291C25.8532 18.9401 25.5307 19.415 25.2001 19.926C25.0822 20.0734 24.9643 20.224 24.8465 20.3829C24.5158 20.8333 24.1965 21.3033 23.8577 21.8011C22.8754 23.2439 21.8604 24.7358 20.5819 25.7413C20.4215 25.8674 20.2545 25.9738 20.0826 26.0688C19.8419 26.1556 19.6029 26.1998 19.3656 26.2228C19.9074 26.0197 20.4329 25.5693 21.1712 24.6817C22.1404 23.5157 22.9704 22.2318 23.7725 20.9888C24.8923 19.2562 25.9498 17.6185 27.3512 16.2757C27.785 15.8597 28.2499 15.6648 28.7754 15.6943C30.4239 15.7729 32.3999 17.9575 34.0549 19.8736C33.9813 19.8146 33.906 19.7557 33.8323 19.6967L33.8307 19.6984ZM32.9565 44.9673C32.9434 44.9837 32.9286 45 32.9155 45.0148C33.2184 44.5071 33.2741 44.0649 33.1889 43.6703C33.369 44.0715 33.3756 44.4072 32.9548 44.9673H32.9565ZM43.9445 26.2129C42.828 25.1534 41.4316 24.4688 40.0793 23.8072C39.1757 23.3651 38.2409 22.9065 37.4289 22.3497C36.7708 21.8994 35.8852 20.8676 34.9488 19.777C33.0465 17.5629 30.8889 15.054 28.8098 14.9541C28.0813 14.9181 27.4166 15.1834 26.8355 15.7418C25.372 17.1453 24.2424 18.8959 23.1472 20.5876C22.3565 21.8126 21.5379 23.0785 20.5983 24.2084C19.305 25.7642 18.9334 25.7184 17.5501 25.548C17.2832 25.5153 16.9804 25.4776 16.6349 25.4481C16.2748 25.417 15.9932 25.3417 15.7215 25.2696C15.029 25.0862 14.4314 24.929 13.4459 25.7953C12.6683 26.4799 12.2378 27.9128 12.1379 30.1547C12.1379 28.7693 12.205 26.4258 13.112 25.3777C13.6047 24.8095 13.9354 24.6686 14.3529 24.6686C14.5231 24.6686 14.7065 24.6916 14.9226 24.7194C15.2958 24.7669 15.7624 24.8242 16.337 24.7669C19.4032 24.459 21.1811 21.7602 22.9016 19.1481C24.3013 17.0257 25.7468 14.8313 27.8636 13.9355C30.681 12.7433 32.8926 15.6386 34.844 18.195C35.7117 19.3315 36.5318 20.4058 37.352 21.0494C37.8398 21.4326 38.57 21.883 39.4147 22.4054C41.9063 23.9448 45.3196 26.0524 45.5995 28.2977C45.6847 28.9855 45.4653 29.6438 44.93 30.3005C45.1723 29.9451 45.3392 29.5636 45.3883 29.1476C45.5029 28.2043 45.0298 27.243 43.9428 26.2113L43.9445 26.2129ZM39.806 21.7749C38.9792 21.264 38.2671 20.8234 37.812 20.4664C37.0671 19.8818 36.2748 18.8435 35.435 17.7446C33.4247 15.1113 30.9232 11.836 27.5754 13.2526C25.2524 14.2352 23.7431 16.5262 22.2828 18.7403C20.5835 21.3196 18.9776 23.7565 16.2633 24.0283C15.7722 24.0774 15.3711 24.0283 15.0159 23.9825C14.2039 23.8809 13.5032 23.7925 12.5505 24.8913C11.7434 25.8248 11.4962 27.4805 11.4242 28.8757C11.4373 27.32 11.5518 24.9536 12.6667 23.6926C13.2544 23.0277 13.9092 22.8181 14.6705 22.5757C15.1419 22.425 15.6281 22.2695 16.1455 21.9943C18.0788 20.9675 19.5276 19.0859 20.929 17.2681C22.9998 14.5791 24.9545 12.0391 28.3416 12.0014C28.3825 12.0014 28.4218 12.0014 28.4627 12.0014C32.4703 12.0014 34.7327 14.2827 37.3471 16.9209C37.9119 17.4908 38.4947 18.0787 39.1086 18.6535C39.6472 19.1579 40.189 19.641 40.7113 20.1078C42.9966 22.1466 45.0429 23.9743 45.7698 26.6764C44.5944 24.7358 41.8932 23.067 39.806 21.7765V21.7749ZM41.4021 37.5602C40.0171 38.6345 38.5847 39.7465 37.298 41.1614C36.7234 41.7935 36.409 42.5288 36.1045 43.2412C35.7984 43.9552 35.5103 44.6299 34.9848 45.1343C34.8407 45.2735 34.6508 45.4176 34.4069 45.5585C34.42 45.5437 34.4331 45.5306 34.4446 45.5159C35.1027 44.7053 35.0797 43.9405 35.0552 43.2019C35.0388 42.7057 35.0241 42.2357 35.2025 41.7149C35.9916 39.3976 38.272 38.0433 40.6883 36.6104C43.5728 34.8974 46.5556 33.1271 46.7749 29.5521C47.068 24.7816 44.3521 22.3579 41.2056 19.551C40.6851 19.0875 40.1481 18.6077 39.6161 18.1082C39.0136 17.5432 38.4341 16.9586 37.8742 16.3952C35.2287 13.7275 32.7256 11.2121 28.3334 11.2579C24.5878 11.3005 22.4285 14.1042 20.3413 16.8145C18.989 18.5717 17.5893 20.3878 15.7984 21.3393C15.34 21.5833 14.8849 21.7274 14.4445 21.8682C13.6522 22.1221 12.8337 22.3825 12.1101 23.2013C11.0345 24.4197 10.7677 26.4013 10.7022 27.9881C10.7219 26.0508 10.9871 23.501 12.0806 21.8322C12.6487 20.9659 13.4852 20.3305 14.3709 19.6558C14.9029 19.2513 15.453 18.832 15.9375 18.3604C16.7594 17.5596 17.5206 16.744 18.2573 15.9547C21.2465 12.7515 23.8315 9.98055 28.741 9.98055C28.8082 9.98055 28.8753 9.98055 28.944 9.98055C32.9581 10.0428 37.5615 12.2831 41.258 15.976C44.9562 19.6705 47.1842 24.2592 47.2186 28.2502C47.2579 33.0174 44.5453 35.1234 41.4037 37.5602H41.4021Z" fill="url(#paint0_linear_416_535)"/>
<defs>
<linearGradient id="paint0_linear_416_535" x1="24.959" y1="21.2371" x2="37.459" y2="47.2371" gradientUnits="userSpaceOnUse">
<stop stop-color="#484553"/>
<stop offset="0.680097" stop-color="#838383"/>
<stop offset="1" stop-color="white"/>
</linearGradient>
</defs>
</svg>
