<svg width="36" height="43" viewBox="0 0 36 43" fill="none" xmlns="http://www.w3.org/2000/svg">
<path d="M24.9678 0.75C25.4298 0.750008 25.8726 0.927654 26.1992 1.24316C26.5259 1.55868 26.71 1.98644 26.71 2.43262V5.23633H29.6133C31.3069 5.23642 32.9312 5.88638 34.1289 7.04297C35.3267 8.19983 36 9.76922 36 11.4053V36.0811C36 37.7172 35.3267 39.2865 34.1289 40.4434C32.9312 41.6 31.307 42.2499 29.6133 42.25H6.38672C4.69302 42.2499 3.06879 41.6 1.87109 40.4434C0.673281 39.2865 0 37.7172 0 36.0811V11.4053C3.6151e-05 9.76922 0.673313 8.19983 1.87109 7.04297C3.06878 5.88638 4.69306 5.23642 6.38672 5.23633H9.29004V2.43262C9.29004 1.98644 9.47414 1.55868 9.80078 1.24316C10.1274 0.927654 10.5702 0.750008 11.0322 0.75C11.4942 0.75 11.937 0.927647 12.2637 1.24316C12.5903 1.55868 12.7744 1.98642 12.7744 2.43262V5.23633H23.2256V2.43262C23.2256 1.98642 23.4097 1.55868 23.7363 1.24316C24.063 0.927647 24.5058 0.75 24.9678 0.75ZM3.4834 20.9395V36.0811C3.4834 36.8246 3.78971 37.5376 4.33398 38.0635C4.87836 38.5893 5.61687 38.8847 6.38672 38.8848H29.6133C30.3831 38.8847 31.1216 38.5893 31.666 38.0635C32.2103 37.5376 32.5166 36.8246 32.5166 36.0811V20.9395H3.4834ZM18 24.3037C18.4619 24.3037 18.9048 24.4814 19.2314 24.7969C19.5581 25.1124 19.7421 25.5402 19.7422 25.9863V28.791H22.6455C23.1074 28.7911 23.5504 28.9678 23.877 29.2832C24.2036 29.5986 24.3866 30.0266 24.3867 30.4727C24.3867 30.9189 24.2036 31.3476 23.877 31.6631C23.5504 31.9784 23.1073 32.1552 22.6455 32.1553H19.7422V34.959C19.7422 35.4052 19.5581 35.8339 19.2314 36.1494C18.9048 36.4648 18.4619 36.6416 18 36.6416C17.5381 36.6416 17.0952 36.4648 16.7686 36.1494C16.4419 35.8339 16.2578 35.4052 16.2578 34.959V32.1553H13.3545C12.8927 32.1552 12.4496 31.9784 12.123 31.6631C11.7964 31.3476 11.6133 30.9189 11.6133 30.4727C11.6134 30.0266 11.7964 29.5986 12.123 29.2832C12.4496 28.9678 12.8926 28.7911 13.3545 28.791H16.2578V25.9863C16.2579 25.5402 16.4419 25.1124 16.7686 24.7969C17.0952 24.4814 17.5381 24.3037 18 24.3037ZM6.38672 8.60156C5.61687 8.60166 4.87836 8.89708 4.33398 9.42285C3.78969 9.94866 3.48343 10.6617 3.4834 11.4053V17.5742H32.5166V11.4053C32.5166 10.6617 32.2103 9.94866 31.666 9.42285C31.1216 8.89708 30.3831 8.60166 29.6133 8.60156H26.71V11.4053C26.71 11.8515 26.5259 12.2792 26.1992 12.5947C25.8726 12.9102 25.4298 13.0879 24.9678 13.0879C24.5058 13.0879 24.063 12.9102 23.7363 12.5947C23.4097 12.2792 23.2256 11.8515 23.2256 11.4053V8.60156H12.7744V11.4053C12.7744 11.8515 12.5903 12.2792 12.2637 12.5947C11.937 12.9102 11.4942 13.0879 11.0322 13.0879C10.5702 13.0879 10.1274 12.9102 9.80078 12.5947C9.47413 12.2792 9.29004 11.8515 9.29004 11.4053V8.60156H6.38672Z" fill="#7E75F8"/>
</svg>
