<svg width="38" height="31" viewBox="0 0 38 31" fill="none" xmlns="http://www.w3.org/2000/svg">
<path d="M33.75 22.5V12.175L19.6625 19.8313C19.1375 20.1229 18.5833 20.2688 18 20.2688C17.4167 20.2688 16.8625 20.1229 16.3375 19.8313L1.55 11.7813C1.22917 11.6063 1.00284 11.3875 0.871003 11.125C0.73917 10.8625 0.673836 10.5708 0.675003 10.25C0.67617 9.92918 0.742087 9.63751 0.872753 9.37501C1.00342 9.11251 1.22917 8.89376 1.55 8.71876L16.3375 0.668759C16.6 0.522926 16.8701 0.413259 17.1478 0.339759C17.4254 0.266259 17.7095 0.230092 18 0.231259C18.2905 0.232426 18.5752 0.269176 18.854 0.341509C19.1328 0.413842 19.4023 0.522926 19.6625 0.668759L36.3313 9.76876C36.6229 9.91459 36.8493 10.1263 37.0103 10.404C37.1713 10.6817 37.2512 10.9803 37.25 11.3V22.5C37.25 22.9958 37.082 23.4118 36.746 23.7478C36.41 24.0838 35.9947 24.2512 35.5 24.25C35.0053 24.2488 34.59 24.0808 34.254 23.746C33.918 23.4112 33.75 22.9958 33.75 22.5ZM16.3375 30.3313L7.5875 25.6063C7.00417 25.2854 6.55209 24.8479 6.23125 24.2938C5.91042 23.7396 5.75 23.1417 5.75 22.5V15.85L16.3375 21.5813C16.8625 21.8729 17.4167 22.0188 18 22.0188C18.5833 22.0188 19.1375 21.8729 19.6625 21.5813L30.25 15.85V22.5C30.25 23.1417 30.0896 23.7396 29.7688 24.2938C29.4479 24.8479 28.9958 25.2854 28.4125 25.6063L19.6625 30.3313C19.4 30.4771 19.1305 30.5868 18.854 30.6603C18.5775 30.7338 18.2928 30.7699 18 30.7688C17.7072 30.7676 17.4225 30.7314 17.146 30.6603C16.8695 30.5891 16.6 30.4794 16.3375 30.3313Z" fill="#7E75F8"/>
</svg>
