<svg width="36" height="35" viewBox="0 0 36 35" fill="none" xmlns="http://www.w3.org/2000/svg">
<path d="M22.6322 3.64175C22.6792 3.83553 22.7712 4.01549 22.9008 4.167C23.0304 4.31851 23.194 4.4373 23.3782 4.5137C23.5623 4.59009 23.7619 4.62194 23.9607 4.60666C24.1595 4.59138 24.3519 4.52939 24.5222 4.42575C28.7905 1.827 33.6747 6.7095 31.076 10.9777C30.9723 11.148 30.9103 11.3402 30.8949 11.5389C30.8795 11.7376 30.9112 11.9371 30.9874 12.1213C31.0637 12.3054 31.1822 12.469 31.3335 12.5987C31.4848 12.7284 31.6646 12.8206 31.8582 12.8677C36.7145 14.0455 36.7145 20.9527 31.8582 22.1322C31.6645 22.1792 31.4845 22.2712 31.333 22.4008C31.1815 22.5304 31.0627 22.694 30.9863 22.8782C30.9099 23.0623 30.878 23.2619 30.8933 23.4607C30.9086 23.6595 30.9706 23.8519 31.0742 24.0222C33.673 28.2905 28.7905 33.1747 24.5222 30.576C24.352 30.4723 24.1598 30.4103 23.9611 30.3949C23.7624 30.3795 23.5629 30.4112 23.3787 30.4874C23.1946 30.5637 23.031 30.6822 22.9013 30.8335C22.7716 30.9848 22.6794 31.1646 22.6322 31.3582C21.4545 36.2145 14.5472 36.2145 13.3677 31.3582C13.3208 31.1645 13.2288 30.9845 13.0992 30.833C12.9695 30.6815 12.806 30.5627 12.6218 30.4863C12.4377 30.4099 12.2381 30.378 12.0393 30.3933C11.8405 30.4086 11.6481 30.4706 11.4777 30.5742C7.2095 33.173 2.32525 28.2905 4.924 24.0222C5.02765 23.852 5.08969 23.6598 5.10508 23.4611C5.12047 23.2624 5.08877 23.0629 5.01255 22.8787C4.93634 22.6946 4.81776 22.531 4.66645 22.4013C4.51515 22.2716 4.33537 22.1794 4.14175 22.1322C-0.714505 20.9545 -0.714505 14.0472 4.14175 12.8677C4.33553 12.8208 4.51549 12.7288 4.667 12.5992C4.81851 12.4695 4.9373 12.306 5.0137 12.1218C5.09009 11.9377 5.12194 11.7381 5.10666 11.5393C5.09138 11.3405 5.02939 11.1481 4.92575 10.9777C2.327 6.7095 7.2095 1.82525 11.4777 4.424C11.6478 4.52843 11.8401 4.59111 12.0391 4.6069C12.238 4.62268 12.4378 4.59113 12.6222 4.51481C12.8066 4.4385 12.9703 4.3196 13.0999 4.16785C13.2295 4.01609 13.3213 3.8358 13.3677 3.64175C14.5455 -1.2145 21.4527 -1.2145 22.6322 3.64175ZM18 12.25C16.6076 12.25 15.2723 12.8031 14.2877 13.7877C13.3031 14.7723 12.75 16.1076 12.75 17.5C12.75 18.8924 13.3031 20.2277 14.2877 21.2123C15.2723 22.1969 16.6076 22.75 18 22.75C19.3924 22.75 20.7277 22.1969 21.7123 21.2123C22.6969 20.2277 23.25 18.8924 23.25 17.5C23.25 16.1076 22.6969 14.7723 21.7123 13.7877C20.7277 12.8031 19.3924 12.25 18 12.25Z" fill="#7E75F8"/>
</svg>
